<svg xmlns="http://www.w3.org/2000/svg" xmlns:xlink="http://www.w3.org/1999/xlink" version="1.1" x="0px" y="0px" viewBox="0 0 256 256" enable-background="new 0 0 256 256" xml:space="preserve">
<metadata fill="#ffffff"> Svg Vector Icons : http://www.onlinewebfonts.com/icon </metadata>
<g><g><path fill="#ffffff" d="M128.1,201.2c17.5,0,32.7-6,45.6-17.9c12.9-11.9,20.1-26.6,21.5-43.9h33.7c-1.4,26.8-11.9,49.3-31.4,67.7c-19.5,18.4-42.6,27.6-69.4,27.6c-24.9,0-46.8-8-65.9-24.1L26.9,246v-95.6h95.6l-36.1,36.1C98.6,196.3,112.6,201.2,128.1,201.2z M193.7,45.4L229.1,10v95.6h-95.6l36.1-36.1c-12.1-9.8-26-14.6-41.5-14.6c-17.5,0-32.7,6-45.7,17.9c-13,11.9-20.2,26.6-21.6,43.9H27.1C28.5,89.9,39,67.4,58.5,48.9c19.5-18.4,42.7-27.6,69.6-27.6C152.8,21.3,174.7,29.4,193.7,45.4z"/></g></g>
</svg>